<svg width="27" height="27" viewBox="0 0 27 27" fill="none" xmlns="http://www.w3.org/2000/svg">
<path d="M13.0835 0.100586L26.0739 22.6006H0.0931149L13.0835 0.100586Z" fill="#FFAB07"/>
<path d="M12.9075 17.2366C12.8008 17.2366 12.7102 17.1993 12.6355 17.1246C12.5608 17.0393 12.5182 16.9273 12.5075 16.7886L12.1235 9.54059C12.1022 9.29525 12.1662 9.10325 12.3155 8.96459C12.4648 8.81525 12.6622 8.74059 12.9075 8.74059C13.1528 8.74059 13.3502 8.81525 13.4995 8.96459C13.6488 9.10325 13.7128 9.29525 13.6915 9.54059L13.3075 16.7886C13.2968 16.9379 13.2542 17.0499 13.1795 17.1246C13.1048 17.1993 13.0142 17.2366 12.9075 17.2366ZM12.9235 20.1806C12.6675 20.1806 12.4542 20.1006 12.2835 19.9406C12.1128 19.7699 12.0275 19.5513 12.0275 19.2846C12.0275 19.0179 12.1128 18.7993 12.2835 18.6286C12.4542 18.4579 12.6675 18.3726 12.9235 18.3726C13.1688 18.3726 13.3715 18.4579 13.5315 18.6286C13.7022 18.7993 13.7875 19.0179 13.7875 19.2846C13.7875 19.5513 13.7022 19.7699 13.5315 19.9406C13.3715 20.1006 13.1688 20.1806 12.9235 20.1806Z" fill="white"/>
</svg>
