<svg width="25" height="25" viewBox="0 0 25 25" fill="none" xmlns="http://www.w3.org/2000/svg">
<circle cx="12.0835" cy="12.1006" r="12" fill="#ED2E7E"/>
<path d="M11.9075 15.2366C11.8008 15.2366 11.7102 15.1993 11.6355 15.1246C11.5608 15.0393 11.5182 14.9273 11.5075 14.7886L11.1235 7.54059C11.1022 7.29525 11.1662 7.10325 11.3155 6.96459C11.4648 6.81525 11.6622 6.74059 11.9075 6.74059C12.1528 6.74059 12.3502 6.81525 12.4995 6.96459C12.6488 7.10325 12.7128 7.29525 12.6915 7.54059L12.3075 14.7886C12.2968 14.9379 12.2542 15.0499 12.1795 15.1246C12.1048 15.1993 12.0142 15.2366 11.9075 15.2366ZM11.9235 18.1806C11.6675 18.1806 11.4542 18.1006 11.2835 17.9406C11.1128 17.7699 11.0275 17.5513 11.0275 17.2846C11.0275 17.0179 11.1128 16.7993 11.2835 16.6286C11.4542 16.4579 11.6675 16.3726 11.9235 16.3726C12.1688 16.3726 12.3715 16.4579 12.5315 16.6286C12.7022 16.7993 12.7875 17.0179 12.7875 17.2846C12.7875 17.5513 12.7022 17.7699 12.5315 17.9406C12.3715 18.1006 12.1688 18.1806 11.9235 18.1806Z" fill="white"/>
</svg>
